<svg id="Слой_1" data-name="Слой 1" xmlns="http://www.w3.org/2000/svg" viewBox="0 0 195.06 285"><defs><style>.cls-1{fill:#4c6095;}.cls-2{fill:none;stroke:#4c6095;stroke-linecap:round;stroke-linejoin:round;stroke-width:1.62px;}.cls-3{fill:#fff;}</style></defs><title>Безымянный-3</title><path class="cls-1" d="M196.76,86.43,185.87,75.54h-.31A47.55,47.55,0,0,1,154.86,64a69.41,69.41,0,0,0-89.8,0,47.53,47.53,0,0,1-30.7,11.56h-.31L23.16,86.43A9.26,9.26,0,0,0,20.45,93v84.21a11.57,11.57,0,0,0,3.39,8.18l7.46,7.46a11.57,11.57,0,0,0,8.18,3.39h141a11.59,11.59,0,0,0,8.19-3.39l7.45-7.46a11.57,11.57,0,0,0,3.39-8.18V93a9.26,9.26,0,0,0-2.71-6.55M144.09,68.52a.83.83,0,0,1-1.14.13,52.71,52.71,0,0,0-66,0,.81.81,0,1,1-1-1.26,54.31,54.31,0,0,1,68,0,.8.8,0,0,1,.13,1.13" transform="translate(-11.62 -13.97)"/><path class="cls-2" d="M205.21,177.19V93a15.31,15.31,0,0,0-4.5-10.87L189.82,71.22,188,69.43h-2.84a41.54,41.54,0,0,1-26.74-10.1,75.54,75.54,0,0,0-97.72,0A41.54,41.54,0,0,1,34,69.43H31.15l-1.79,1.79L18.47,82.11A15.31,15.31,0,0,0,14,93v154.5a15.27,15.27,0,0,0,4.5,10.87l8.18,8.18A15.27,15.27,0,0,0,37.52,271H181.66a15.29,15.29,0,0,0,10.87-4.5l8.18-8.18a15.27,15.27,0,0,0,4.5-10.87V177.19Z" transform="translate(-11.62 -13.97)"/><path class="cls-1" d="M180.44,202.58h-141A11.57,11.57,0,0,0,31.3,206l-7.46,7.46a11.57,11.57,0,0,0-3.39,8.18v25.87A9.29,9.29,0,0,0,23.16,254l8.18,8.18a9.25,9.25,0,0,0,6.55,2.71H182a9.25,9.25,0,0,0,6.55-2.71l8.18-8.18a9.25,9.25,0,0,0,2.71-6.55V221.61a11.57,11.57,0,0,0-3.39-8.18L188.63,206a11.59,11.59,0,0,0-8.19-3.39" transform="translate(-11.62 -13.97)"/><path class="cls-3" d="M112.24,159.34V173.5h-47a40,40,0,0,1,4.62-15.26q3.87-7.23,15-19,8.84-9.37,10.88-12.68a18.12,18.12,0,0,0,3-9.7q0-5.19-2.5-7.85a8.62,8.62,0,0,0-6.57-2.66q-8.91,0-9.6,12.42l-13.32-1.52Q68,105.11,74.05,99.42t16-5.69q11,0,16.58,6.66a23.1,23.1,0,0,1,5.59,15.28,31.71,31.71,0,0,1-1.43,9.46,38.15,38.15,0,0,1-4.39,9.21,84.24,84.24,0,0,1-9.89,11.84q-6.45,6.76-8.17,8.94a24.46,24.46,0,0,0-2.76,4.22Z" transform="translate(-11.62 -13.97)"/><path class="cls-3" d="M149.87,173.5H136.49V116.07a46.16,46.16,0,0,1-17.33,11.55V113.79a37.22,37.22,0,0,0,11.57-7.54,29,29,0,0,0,8.32-12.52h10.82Z" transform="translate(-11.62 -13.97)"/><polygon class="cls-1" points="41.72 277.21 40.88 278.5 40.88 282.72 38.54 282.72 38.54 269.18 40.88 269.18 40.88 274.73 41.68 273.14 43.94 269.18 46.69 269.18 43.05 275.08 47.27 282.72 44.56 282.72 41.72 277.21"/><path class="cls-1" d="M69.28,283.15v13.54H66.9v-11.3H64.38c-.19,3.76-.38,6.41-.63,8-.45,2.9-1.74,3.54-3.81,3.54v-2.15c.83,0,1.25-.4,1.52-2,.24-1.39.39-4,.64-9.63Z" transform="translate(-11.62 -13.97)"/><path class="cls-1" d="M80.13,283.15l-3.21,10.44c-.83,2.67-1.84,3.31-4.1,3.31h-.5v-2.13h.58c1,0,1.47-.38,1.91-1.89l-3.38-9.73h2.51l1.94,6.05,1.76-6.05Z" transform="translate(-11.62 -13.97)"/><path class="cls-1" d="M90.23,292.53c0,2.81-1.41,4.16-4.16,4.16H82.18V283.15h7.29v2.22H84.56v3h1.51a3.81,3.81,0,0,1,4.16,4.14m-2.46,0a1.7,1.7,0,0,0-1.87-1.91H84.56v3.81H85.9a1.68,1.68,0,0,0,1.87-1.9" transform="translate(-11.62 -13.97)"/><polygon class="cls-1" points="89.26 269.18 89.26 282.72 86.86 282.72 86.86 277.01 83.6 277.01 83.6 282.72 81.22 282.72 81.22 269.18 83.6 269.18 83.6 274.75 86.86 274.75 86.86 269.18 89.26 269.18"/><path class="cls-1" d="M104.24,283.15h2.43v5.26h1.07c2.82,0,4.15,1.7,4.15,4.18,0,2.76-1.33,4.1-4.15,4.1h-3.5Zm3.32,11.35c1.24,0,1.86-.6,1.86-1.91s-.62-1.92-1.86-1.92h-.89v3.83Zm5.77-11.35h2.37v13.54h-2.37Z" transform="translate(-11.62 -13.97)"/><path class="cls-1" d="M119,283.15h2.32v4.43a45.53,45.53,0,0,1-.29,4.64l.06,0c.29-.76.62-1.68,1-2.5l2.88-6.61h2.38v13.54h-2.32v-4.22c0-1.27.09-3.48.25-4.91l-.06-.06c-.35.93-.71,2-1.12,2.94l-2.73,6.25H119Zm1.8-3.69h1.53a.85.85,0,0,0,.89.9.86.86,0,0,0,.89-.9h1.51a2.26,2.26,0,0,1-2.38,2.35,2.31,2.31,0,0,1-2.44-2.35" transform="translate(-11.62 -13.97)"/><path class="cls-1" d="M145.15,294.46V299h-2.34v-2.28h-6.14V299h-2.34v-4.51h.84c1.1-1.18,1.48-3.28,1.56-5.26l.23-6.05h7v11.31Zm-3.58-9.07h-2.38l-.18,4.49a10,10,0,0,1-1.06,4.58h3.62Z" transform="translate(-11.62 -13.97)"/><path class="cls-1" d="M147.12,292.34V287.5c0-2.86,1.59-4.58,4.27-4.58s4.26,1.72,4.26,4.58v4.84c0,2.86-1.59,4.58-4.26,4.58s-4.27-1.72-4.27-4.58m6.07,0V287.5c0-1.47-.6-2.28-1.8-2.28s-1.81.81-1.81,2.28v4.84c0,1.47.62,2.28,1.81,2.28s1.8-.81,1.8-2.28" transform="translate(-11.62 -13.97)"/><path class="cls-1" d="M169.77,283.15v13.54h-2.34v-4.24c.06-1.58.12-3.13.19-4.66l-.09,0c-.39,1.12-.83,2.34-1.26,3.56l-.91,2.4H163l-.91-2.4c-.42-1.22-.85-2.44-1.25-3.56l-.1,0c.08,1.53.13,3.08.19,4.66v4.24h-2.32V283.15H161l2.2,5.3c.29.71.76,1.95.93,2.51h.08c.17-.56.66-1.8.95-2.51l2.18-5.3Z" transform="translate(-11.62 -13.97)"/><path class="cls-1" d="M23.92,56.71c1.94,2,1.85,4-.13,5.88L21,65.27l-9.36-9.78,5.27-5,1.54,1.61-3.55,3.39L17,57.63l1.09-1a3.81,3.81,0,0,1,5.87.12m-1.78,1.7a1.7,1.7,0,0,0-2.68-.09l-1,.92L21.13,62l1-.92a1.67,1.67,0,0,0,0-2.66" transform="translate(-11.62 -13.97)"/><path class="cls-1" d="M25.52,55l-3-3.76c-1.81-2.22-1.66-4.56.43-6.25s4.39-1.35,6.19.87l3,3.76c1.81,2.22,1.66,4.56-.42,6.24s-4.4,1.36-6.21-.86m4.72-3.83-3-3.76c-.92-1.14-1.9-1.39-2.83-.64s-.9,1.78,0,2.92l3.05,3.76c.93,1.14,1.92,1.38,2.85.63s.89-1.77,0-2.91" transform="translate(-11.62 -13.97)"/><path class="cls-1" d="M36.11,35.71l7.61,11.2-2,1.34L35.4,38.91l-2.08,1.41c2,3.21,3.28,5.51,4,7,1.27,2.65.55,3.91-1.16,5.07l-1.2-1.77c.68-.47.81-1,.15-2.5-.59-1.28-1.92-3.51-4.89-8.32Z" transform="translate(-11.62 -13.97)"/><path class="cls-1" d="M39.68,33.52l2.07-1.17,2.59,4.58,1.16-.65c2.48-1.4,4.49-.58,5.71,1.57,1.36,2.41.84,4.24-1.64,5.64l-3.23,1.82Zm8.66,8.15a1.68,1.68,0,0,0,.71-2.6,1.68,1.68,0,0,0-2.59-.74l-1,.57,1.88,3.34Z" transform="translate(-11.62 -13.97)"/><polygon class="cls-1" points="38.06 13.98 40.2 13.05 44.7 23.39 47.52 22.17 43.02 11.82 45.17 10.89 49.66 21.23 52.48 20.01 47.99 9.66 50.14 8.73 55.53 21.15 43.45 26.4 38.06 13.98"/><path class="cls-1" d="M74.07,30.37l-3,1,.22,2.5-2.37.75L68,20.66l2.44-.77,7.24,11.92-2.36.74Zm-1.14-2-1.27-2.24c-.46-.83-1.11-2.18-1.52-3l0,0c.16.9.4,2.38.5,3.33L70.83,29Z" transform="translate(-11.62 -13.97)"/><path class="cls-1" d="M80,26a4.06,4.06,0,0,1-3-3.42c-.63-2.75.54-4.7,3.09-5.28l3.62-.81,3,13.21-2.32.52-1-4.51-1,.24L81,31l-2.56.58Zm2.91-2.5-1-4.28-1.28.29c-1.12.25-1.56,1.12-1.24,2.54s1.09,2,2.2,1.74Z" transform="translate(-11.62 -13.97)"/><path class="cls-1" d="M101.54,18.73c.28,2.83-1.16,4.62-3.87,4.89l-1.37.13.44,4.52-2.37.24L93.06,15l3.73-.36c2.72-.27,4.48,1.23,4.75,4.06M99.12,19c-.15-1.48-.86-2.17-2.13-2l-1.34.13.43,4.47,1.35-.13c1.27-.13,1.83-.94,1.69-2.42" transform="translate(-11.62 -13.97)"/><path class="cls-1" d="M108.91,25.11l-3.17.06-.49,2.47-2.48.05,3-13.61,2.55-.05L112,27.5l-2.48.05Zm-.53-2.26-.59-2.5c-.22-.92-.46-2.41-.61-3.31h-.06c-.1.91-.28,2.4-.46,3.33l-.48,2.53Z" transform="translate(-11.62 -13.97)"/><path class="cls-1" d="M121.85,24.23a4.06,4.06,0,0,1-4.61,3.83,4.26,4.26,0,0,1-4.15-4.54l2.4.15a1.92,1.92,0,0,0,1.87,2.09,1.83,1.83,0,0,0,2.06-1.82c.08-1.27-.67-2-2-2.07l-1-.06.13-2.07.79.05a1.67,1.67,0,0,0,2-1.76A1.49,1.49,0,0,0,118,16.26c-1.31-.08-1.81.78-1.94,1.92L113.66,18c.3-2.5,1.78-4.21,4.43-4.05a3.7,3.7,0,0,1,3.72,4.18,2.75,2.75,0,0,1-2,2.72,3,3,0,0,1,2.07,3.35" transform="translate(-11.62 -13.97)"/><polygon class="cls-1" points="121.97 2.07 120.02 15.46 117.64 15.12 118.47 9.47 115.23 9 114.41 14.64 112.05 14.3 114.01 0.9 116.36 1.25 115.56 6.76 118.79 7.23 119.6 1.72 121.97 2.07"/><path class="cls-1" d="M135.28,25.7,136.4,21c.67-2.78,2.61-4.09,5.23-3.46s3.74,2.66,3.07,5.45l-1.13,4.7c-.66,2.79-2.61,4.09-5.2,3.47s-3.76-2.67-3.09-5.45m5.91,1.41,1.12-4.7c.34-1.43-.05-2.36-1.22-2.64s-2,.36-2.3,1.79l-1.12,4.71c-.35,1.43.07,2.36,1.23,2.64s1.94-.37,2.29-1.8" transform="translate(-11.62 -13.97)"/><path class="cls-1" d="M156.52,22.2l-4.31,12.92L150,34.37l1.54-4.61a6.69,6.69,0,0,1-1.77-.32c-2.33-.78-3.24-2.82-2.34-5.5l1.43-4.31,2.26.75-1.47,4.43c-.46,1.37,0,2.22,1.16,2.63a4.81,4.81,0,0,0,1.43.23l2.07-6.22Z" transform="translate(-11.62 -13.97)"/><path class="cls-1" d="M160.5,23.71l2.13.92-1.77,4.07c-.45,1-1.37,2.86-2.12,4.14l0,.06c.57-.58,1.24-1.3,1.9-1.9L166,26.09l2.19.95-5.41,12.41-2.13-.92,1.69-3.87c.51-1.17,1.47-3.16,2.19-4.41l0-.07c-.69.71-1.46,1.56-2.21,2.25l-5,4.64-2.17-.94Z" transform="translate(-11.62 -13.97)"/><polygon class="cls-1" points="167.4 18.82 160.91 30.7 158.81 29.55 161.54 24.54 158.68 22.97 155.94 27.98 153.85 26.84 160.35 14.96 162.43 16.1 159.76 20.99 162.63 22.56 165.3 17.67 167.4 18.82"/><polygon class="cls-1" points="177.74 25.48 170.24 36.75 168.24 35.42 171.4 30.67 168.68 28.86 165.52 33.61 163.54 32.29 171.04 21.02 173.02 22.34 169.94 26.98 172.66 28.79 175.74 24.15 177.74 25.48"/><path class="cls-1" d="M189.79,53.73l-2.48-2-1.95,1.6-2-1.54,11-8.56,2,1.58-5.78,12.69L188.7,56Zm1-2.07L192,49.35c.43-.85,1.18-2.15,1.64-3l-.05,0c-.65.65-1.74,1.68-2.47,2.29l-2,1.64Z" transform="translate(-11.62 -13.97)"/><path class="cls-1" d="M196.71,56.17a4.06,4.06,0,0,1,1.15-4.37c1.91-2.08,4.18-2.22,6.1-.44l2.73,2.52-9.21,9.94-1.74-1.62,3.14-3.39-.78-.72-4.92,1.75-1.93-1.79Zm3.71,1,3-3.23-1-.89c-.84-.77-1.81-.64-2.8.42s-1,2-.19,2.8Z" transform="translate(-11.62 -13.97)"/><polyline class="cls-2" points="8.82 194.24 17.54 185.81 8.82 177.38"/><polyline class="cls-2" points="187.48 177.38 178.76 185.81 187.48 194.24"/><path class="cls-3" d="M77.71,216.86c15,0,15.93,10.37,15.93,13,0,5.45-3.79,12.91-14.39,12.91H73.86v10.79H65.45V216.86Zm0,19.37c5.09,0,7-3.5,7-6.64,0-3.43-2.19-6.21-7-6.21H73.86v12.85Z" transform="translate(-11.62 -13.97)"/><path class="cls-3" d="M108.64,224.43v6.29h.17c.67-3.54,3.31-6.74,7.81-6.74a13.35,13.35,0,0,1,2.52.34l-.28,5.56c-.56-.06-1.68-.17-2.47-.17-2.75,0-7.08,1.69-7.08,9.83v14h-7.64v-29.1Z" transform="translate(-11.62 -13.97)"/><path class="cls-3" d="M137.23,224c8.65,0,15,5.28,15,15s-6.35,15-15,15-15-5.28-15-15,6.35-15,15-15m0,24.49c3.37,0,7-2.75,7-9.49s-3.65-9.49-7-9.49-7,2.75-7,9.49,3.65,9.49,7,9.49" transform="translate(-11.62 -13.97)"/></svg>