<?xml version='1.0' encoding='iso-8859-1'?>
<svg version="1.1" xmlns="http://www.w3.org/2000/svg" viewBox="0 0 376.213 376.213" xmlns:xlink="http://www.w3.org/1999/xlink" enable-background="new 0 0 376.213 376.213">
  <g>
    <g>
      <path d="m367.663,117.295c4.72,0 8.55-3.831 8.55-8.55v-65.427c0-4.138-2.958-7.678-7.028-8.413l-179.557-32.355c-1.009-0.188-2.035-0.188-3.044,2.66454e-15l-179.556,32.354c-4.07,0.736-7.028,4.293-7.028,8.414v65.427c0,4.72 3.831,8.55 8.55,8.55h42.751v171.006h-25.65c-4.72,0-8.55,3.831-8.55,8.55v25.651h-8.551c-4.72,0-8.55,3.831-8.55,8.55v34.201c0,4.72 3.831,8.55 8.55,8.55h359.112c4.72,0 8.55-3.831 8.55-8.55v-34.201c0-4.72-3.831-8.55-8.55-8.55h-8.55v-25.651c0-4.72-3.831-8.55-8.55-8.55h-25.651v-171.006h42.752zm-350.562-66.829l171.006-30.815 171.006,30.815v49.728h-42.751-51.302-51.302-51.302-51.302-51.302-42.751v-49.728zm205.207,237.835v-171.006h34.201v171.006h-34.201zm-102.604,0v-171.006h34.201v171.006h-34.201zm51.302-171.006h34.201v171.006h-34.201v-171.006zm-102.604-0h34.201v171.006h-34.201v-171.006zm290.71,239.408h-342.011v-17.101h8.55 324.911 8.55v17.101zm-17.1-34.201h-307.811v-17.101h25.651 51.302 51.302 51.302 51.302 51.302 25.651v17.101zm-34.202-34.201h-34.201v-171.006h34.201v171.006z"/>
    </g>
  </g>
</svg>
